# xmcd CD database file
# Copyright (C) 1995-1998 Ti Kan
#
# Track frame offsets:
#	150
#	16192
#	29550
#	62920
#	78537
#	103240
#	122505
#	142675
#	182385
#	199425
#	217962
#
# Disc length: 3394 seconds
#
# Revision: 1
# Processed by: cddbd v1.5.1PL0 Copyright (c) Steve Scherf et al.
# Submitted via: CDex 1.30Release
#
DISCID=940d400b
DTITLE=McNasty Brothers - Live at the mammoth
DYEAR=2003
DGENRE=Country
TTITLE0=Country song
TTITLE1=Magic mountain breakdown
TTITLE2=Arizona sunset/Golden mare
TTITLE3=Freeway
TTITLE4=Ghostriders
TTITLE5=Rose of St. Louuie
TTITLE6=Who broke the moon?
TTITLE7=Jambalaya
TTITLE8=Tears from heaven
TTITLE9=Mammoth Serenade
TTITLE10=Orange blossom special
EXTD=YEAR: 2003 ID3G:   2
EXTT0=
EXTT1=
EXTT2=
EXTT3=
EXTT4=
EXTT5=
EXTT6=
EXTT7=
EXTT8=
EXTT9=
EXTT10=
PLAYORDER=
